<svg width="14" height="16" fill="none" xmlns="http://www.w3.org/2000/svg"><path opacity=".4" d="M14 11.25V.75a.748.748 0 0 0-.75-.75H3a3 3 0 0 0-3 3v10a3 3 0 0 0 3 3h10.25c.416 0 .75-.334.75-.75v-.5a.756.756 0 0 0-.278-.584c-.131-.482-.131-1.854 0-2.335A.745.745 0 0 0 14 11.25ZM4 4.187C4 4.085 4.084 4 4.188 4h6.625c.103 0 .187.084.187.188v.625a.188.188 0 0 1-.188.187H4.189A.188.188 0 0 1 4 4.812v-.625Zm0 2C4 6.085 4.084 6 4.188 6h6.625c.103 0 .187.084.187.188v.625a.188.188 0 0 1-.188.187H4.189A.188.188 0 0 1 4 6.812v-.625ZM11.919 14H3a.999.999 0 1 1 0-2h8.919c-.06.534-.06 1.466 0 2Z" fill="#9FA2B4"/></svg>