<svg width="16" height="12" fill="none" xmlns="http://www.w3.org/2000/svg"><path opacity=".4" d="M2.4 5.2c.883 0 1.6-.718 1.6-1.6C4 2.717 3.283 2 2.4 2 1.518 2 .8 2.717.8 3.6c0 .882.718 1.6 1.6 1.6Zm11.2 0c.883 0 1.6-.718 1.6-1.6 0-.883-.717-1.6-1.6-1.6-.883 0-1.6.717-1.6 1.6 0 .882.717 1.6 1.6 1.6Zm.8.8h-1.6c-.44 0-.838.177-1.128.465A3.657 3.657 0 0 1 13.55 9.2h1.65a.8.8 0 0 0 .8-.8v-.8c0-.883-.717-1.6-1.6-1.6ZM8 6c1.547 0 2.8-1.253 2.8-2.8C10.8 1.652 9.547.4 8 .4a2.799 2.799 0 0 0-2.8 2.8C5.2 4.747 6.452 6 8 6Zm1.92.8h-.207c-.52.25-1.098.4-1.713.4s-1.19-.15-1.713-.4H6.08A2.88 2.88 0 0 0 3.2 9.68v.72a1.2 1.2 0 0 0 1.2 1.2h7.2a1.2 1.2 0 0 0 1.2-1.2v-.72A2.88 2.88 0 0 0 9.92 6.8Zm-5.593-.335A1.595 1.595 0 0 0 3.2 6H1.6C.717 6 0 6.717 0 7.6v.8a.8.8 0 0 0 .8.8h1.647a3.666 3.666 0 0 1 1.88-2.735Z" fill="#9FA2B4"/></svg>