<svg width="12" height="16" fill="none" xmlns="http://www.w3.org/2000/svg"><path opacity=".4" d="M3.502 14.198a1 1 0 0 0 .167.553l.534.803a1 1 0 0 0 .833.446h1.928a1 1 0 0 0 .833-.446l.534-.803a1 1 0 0 0 .167-.553L8.5 13h-5l.002 1.198ZM.5 5.5a5.47 5.47 0 0 0 1.361 3.618c.516.59 1.324 1.82 1.632 2.858l.003.024h5.008l.003-.024c.308-1.038 1.116-2.269 1.632-2.858A5.5 5.5 0 0 0 5.983 0C2.795.01.5 2.593.5 5.5ZM6 3a2.503 2.503 0 0 0-2.5 2.5.5.5 0 1 1-1 0C2.5 3.57 4.07 2 6 2a.5.5 0 1 1 0 1Z" fill="#9FA2B4"/></svg>