<svg width="16" height="16" fill="none" xmlns="http://www.w3.org/2000/svg"><path d="M3.556 5.333h8.888v5.334H3.556V5.333ZM14.666 8c0 .736.598 1.333 1.334 1.333V12c0 .736-.597 1.333-1.333 1.333H1.333A1.333 1.333 0 0 1 0 12V9.333a1.333 1.333 0 1 0 0-2.666V4c0-.736.597-1.333 1.333-1.333h13.334C15.403 2.667 16 3.264 16 4v2.667c-.736 0-1.333.597-1.333 1.333Zm-1.333-2.889a.667.667 0 0 0-.666-.667H3.333a.667.667 0 0 0-.666.667v5.778c0 .368.298.667.666.667h9.334a.667.667 0 0 0 .666-.667V5.11Z" fill="#DDE2FF"/></svg>